<?xml version="1.0" encoding="UTF-8" standalone="no"?>
<svg
   width="20"
   height="20"
   viewBox="0 0 20 20"
   version="1.1"
   id="svg5"
   sodipodi:docname="account.svg"
   xmlns:inkscape="http://www.inkscape.org/namespaces/inkscape"
   xmlns:sodipodi="http://sodipodi.sourceforge.net/DTD/sodipodi-0.dtd"
   xmlns="http://www.w3.org/2000/svg"
   xmlns:svg="http://www.w3.org/2000/svg">
  <defs
     id="defs9" />
  <sodipodi:namedview
     id="namedview7"
     pagecolor="#505050"
     bordercolor="#ffffff"
     borderopacity="1"
     inkscape:showpageshadow="0"
     inkscape:pageopacity="0"
     inkscape:pagecheckerboard="1"
     inkscape:deskcolor="#505050"
     showgrid="false" />
  <g
     id="layer1">
    <path
       d="M 10,0 9.6054688,0.015625 9.2148438,0.0625 8.828125,0.13867188 8.4492188,0.24414062 8.078125,0.38085938 7.7207031,0.54492188 7.3769531,0.73632812 7.0488281,0.95507812 6.7382812,1.1972656 6.4492188,1.4648438 6.1816406,1.7539062 5.9375,2.0605469 5.71875,2.3867188 5.5253906,2.7304688 5.359375,3.0859375 5.2246094,3.4550781 5.1171875,3.8339844 5.0390625,4.21875 4.9941406,4.609375 4.9785156,5 4.9941406,5.6132812 5.0371094,6.2246094 5.1132812,6.8320312 5.21875,7.4355469 5.3535156,8.0332031 5.5175781,8.625 l 0.1914063,0.5800781 0.2207031,0.5722657 0.25,0.5585942 0.2753906,0.548828 0.1835938,0.308593 0.2089843,0.291016 0.0625,0.09766 0.037109,0.107422 0.00977,0.115235 -0.015625,0.115234 -0.042969,0.105469 -0.0625,0.0957 -0.085937,0.07617 -0.1015625,0.05664 -0.109375,0.0332 -0.7207031,0.132813 -0.7128906,0.15625 -0.7089844,0.179687 -0.7011719,0.205079 -0.6933594,0.230468 -0.6855469,0.253906 -0.2792968,0.125 -0.2636719,0.152344 -0.2480469,0.179688 -0.2285156,0.201172 -0.2050781,0.224609 -0.18164065,0.242187 -0.15625,0.261719 L 0.62304688,15.107422 0.4453125,15.578125 0.29492188,16.056641 0.171875,16.542969 0.07617187,17.035156 0.0078125,17.53125 0,17.736328 0.01953125,17.9375 l 0.046875,0.197266 0.07226563,0.189453 0.0976562,0.177734 0.11914063,0.164063 L 0.5,18.810547 l 0.15820312,0.125 0.17773438,0.101562 0.1875,0.08008 0.1972656,0.04883 1.1582031,0.208984 1.1640626,0.177734 1.1679687,0.148438 1.171875,0.11914 1.1738281,0.08984 1.1777344,0.06055 L 9.4121094,20 h 1.1757816 l 1.177734,-0.0293 1.177734,-0.06055 1.173829,-0.08984 1.171874,-0.11914 1.167969,-0.148438 1.16211,-0.177734 1.160156,-0.208984 0.197265,-0.04883 0.1875,-0.08008 0.175782,-0.101562 0.160156,-0.125 0.142578,-0.144531 0.121094,-0.164063 0.09766,-0.177734 0.07227,-0.189453 L 19.980469,17.9375 20,17.736328 19.9922,17.53125 l -0.06836,-0.496094 -0.0957,-0.492187 -0.123047,-0.486328 -0.15039,-0.478516 -0.177735,-0.470703 -0.128906,-0.275391 -0.158203,-0.261719 -0.181641,-0.242187 -0.205078,-0.224609 -0.228516,-0.201172 -0.248047,-0.179688 -0.263671,-0.152344 -0.279297,-0.125 -0.685547,-0.253906 -0.693359,-0.230468 -0.701172,-0.205079 -0.707032,-0.179687 -0.71289,-0.15625 -0.720703,-0.132813 -0.111329,-0.0332 -0.101562,-0.05664 -0.08398,-0.07617 -0.06445,-0.0957 -0.04101,-0.105469 -0.01758,-0.115234 0.01172,-0.115235 0.03711,-0.107422 0.06055,-0.09766 0.210937,-0.291016 0.183594,-0.308593 0.275391,-0.548828 L 14.070312,9.7773438 14.291016,9.2050781 14.484375,8.625 14.648438,8.0332031 14.783203,7.4355469 14.886719,6.8320312 14.962891,6.2246094 15.007812,5.6132812 15.021484,5 15.007812,4.609375 14.960938,4.21875 14.882812,3.8339844 14.777344,3.4550781 14.640625,3.0859375 14.474609,2.7304688 14.283203,2.3867188 14.064453,2.0605469 13.818359,1.7539062 13.552734,1.4648438 13.263672,1.1972656 12.953125,0.95507812 12.625,0.73632812 12.279297,0.54492188 11.921875,0.38085938 11.552734,0.24414062 11.173828,0.13867188 10.785156,0.0625 10.394531,0.015625 Z m -0.00195,1 0.351562,0.015625 0.347657,0.046875 0.341796,0.074219 0.333985,0.1054687 0.324219,0.1328125 0.3125,0.1621094 0.294922,0.1875 0.277343,0.2109375 0.259766,0.2363281 0.234375,0.2578125 0.214844,0.2773437 L 13.480469,3 l 0.160156,0.3105469 0.134766,0.3222656 0.105468,0.3339844 0.07617,0.3398437 0.04492,0.3457032 0.01563,0.3496093 -0.01367,0.5625 -0.04101,0.5625 -0.07031,0.5585938 -0.09766,0.5546875 -0.123047,0.5507812 -0.150391,0.5429688 -0.175781,0.5351562 -0.205078,0.5253906 -0.228516,0.515625 -0.253906,0.5039058 -0.136719,0.230469 -0.158203,0.21875 -0.126953,0.183594 -0.09375,0.201172 -0.06641,0.212891 -0.03516,0.21875 v 0.222656 l 0.0332,0.21875 0.06445,0.21289 0.0957,0.201172 0.125,0.183594 0.148437,0.164062 0.173829,0.140626 0.193359,0.113281 0.207031,0.08398 0.214844,0.05274 0.685547,0.126953 0.679687,0.148437 0.673829,0.171875 0.667968,0.195313 0.660156,0.21875 0.654297,0.242187 0.210938,0.0957 0.199219,0.121094 0.183593,0.142578 0.166016,0.16211 0.144531,0.179687 0.123047,0.199219 0.09961,0.207031 0.158204,0.417969 0.134765,0.425781 0.109375,0.433594 0.08398,0.435547 0.06055,0.443359 -0.002,0.123047 -0.03125,0.121094 -0.0625,0.105468 -0.08398,0.0918 -0.105469,0.06445 -0.11914,0.03906 -1.132813,0.203125 -1.138672,0.173828 -1.142578,0.146484 -1.146484,0.117188 -1.148438,0.08594 -1.152344,0.05859 L 10.576172,19 H 9.421875 L 8.2714844,18.970703 7.1210938,18.912109 5.9726562,18.826172 4.8242188,18.708984 3.6835938,18.5625 2.5429688,18.388672 1.4101562,18.185547 l -0.1171874,-0.03906 -0.1074219,-0.06445 -0.083984,-0.0918 -0.060547,-0.105468 -0.033203,-0.121094 -0.00195,-0.123047 0.0625,-0.443359 0.083984,-0.435547 0.109375,-0.433594 0.1328124,-0.425781 0.1582032,-0.417969 0.1015625,-0.207031 0.1230469,-0.199219 0.1445312,-0.179687 0.1660156,-0.16211 0.1835938,-0.142578 0.1992187,-0.121094 0.2109375,-0.0957 0.6523438,-0.242187 0.6601562,-0.21875 0.6679688,-0.195313 0.6757812,-0.171875 0.6796875,-0.148437 0.6835938,-0.126953 0.2167969,-0.05274 0.2070312,-0.08398 0.1933594,-0.113281 0.171875,-0.140626 0.1484375,-0.164062 0.1269531,-0.183594 0.09375,-0.201172 0.064453,-0.21289 0.033203,-0.21875 v -0.222656 l -0.035156,-0.21875 -0.064453,-0.212891 -0.095703,-0.201172 -0.125,-0.183594 L 7.4785156,10.644531 7.3417969,10.414062 7.0859375,9.9101562 6.8574219,9.3945312 6.6542969,8.8691406 6.4785156,8.3339844 6.328125,7.7910156 6.203125,7.2402344 6.1074219,6.6855469 6.0371094,6.1269531 5.9960938,5.5644531 5.9804688,5.0019531 5.9980469,4.6523438 6.0429688,4.3066406 6.1191406,3.9667969 6.2246094,3.6328125 6.359375,3.3105469 6.5195312,3 6.7089844,2.7070312 6.921875,2.4296875 7.1582031,2.171875 7.4179688,1.9355469 7.6953125,1.7246094 7.9902344,1.5371094 8.3007812,1.375 8.625,1.2421875 8.9589844,1.1367188 9.3027344,1.0625 9.6503906,1.015625 Z"
       style="fill:#222222;fill-opacity:1;stroke:none;stroke-width:0px"
       id="path2" />
  </g>
  <path
     style="fill:#ffffff;stroke-width:0.0341185"
     d="M 7.7790276,18.933068 C 5.7089243,18.820892 3.8481174,18.606674 1.8950844,18.255703 0.95807805,18.087318 0.92031201,18.018567 1.1459917,16.892036 1.2489673,16.378009 1.4953976,15.6255 1.6657593,15.304853 1.8483062,14.961271 2.1723842,14.649069 2.5285104,14.473716 3.1713366,14.157195 5.0142967,13.610483 6.1754561,13.391855 7.01198,13.23435 7.2079217,13.160822 7.4836381,12.900952 7.8132505,12.590284 7.9584443,12.250782 7.95963,11.787956 7.960616,11.402608 7.8933789,11.21729 7.58579,10.757607 6.8788992,9.7011795 6.3034736,8.0364008 6.0904306,6.4313451 6.0140331,5.8557701 5.9860419,4.8644378 6.0357297,4.4940674 6.2693947,2.7523367 7.607791,1.3710753 9.3459632,1.077817 11.092993,0.78306406 12.825556,1.6850547 13.599856,3.2924393 c 0.275881,0.5727069 0.359162,0.932603 0.379985,1.6420858 0.03967,1.3515703 -0.210566,2.7482424 -0.748031,4.1751256 -0.200725,0.5328927 -0.602984,1.3376943 -0.856501,1.7136083 -0.406236,0.602362 -0.458307,1.08483 -0.178343,1.652461 0.140504,0.284874 0.398019,0.540784 0.676964,0.672747 0.110142,0.0521 0.456025,0.140885 0.878472,0.225481 0.383241,0.07674 0.942454,0.201674 1.242697,0.27762 0.705517,0.178458 2.102857,0.641973 2.469235,0.819076 0.655144,0.316689 1.004484,0.876357 1.317943,2.111443 0.09723,0.383104 0.187354,0.916231 0.187368,1.108377 10e-6,0.154176 -0.09193,0.327657 -0.217118,0.409685 -0.172661,0.113131 -2.570138,0.491621 -4.098613,0.647047 -1.638376,0.166603 -2.880963,0.223427 -4.7595368,0.217658 -0.891347,-0.0027 -1.8432543,-0.01704 -2.1153496,-0.03179 z"
     id="path184" />
  <path
     style="fill:#ffffff;stroke-width:0.0341185"
     d="M 8.7855245,19.972963 C 6.3164042,19.888917 3.974414,19.64902 1.825342,19.260011 0.92983795,19.097913 0.79676768,19.047846 0.48977631,18.757506 0.16767221,18.452874 0.02899189,18.130666 0.03087126,17.691294 0.03394889,16.971787 0.41772116,15.500618 0.77363262,14.84396 1.1222121,14.200831 1.6656111,13.727532 2.3809862,13.443961 c 1.0860796,-0.430516 2.2252459,-0.758849 3.5482053,-1.02267 0.3805975,-0.0759 0.7382417,-0.161911 0.7947648,-0.19114 0.1655998,-0.08563 0.2420421,-0.23966 0.2279273,-0.459254 -0.01044,-0.162424 -0.03747,-0.224347 -0.2010599,-0.4606 C 6.1614794,10.459174 5.584945,9.0125613 5.2754809,7.6084348 5.0024944,6.3698175 4.9269542,4.8146609 5.0999506,3.994765 5.4132861,2.5097497 6.402633,1.2313175 7.7642904,0.5519101 10.02762,-0.57739204 12.798409,0.16448616 14.176893,2.268883 c 0.458053,0.6992645 0.70759,1.4044925 0.802819,2.2688831 0.06769,0.6144019 -0.01366,1.7890525 -0.190208,2.7465426 -0.26285,1.4255491 -0.882184,3.0529063 -1.530639,4.0218893 -0.247572,0.369948 -0.277781,0.497918 -0.170772,0.723424 0.0847,0.178493 0.235086,0.248042 0.737189,0.340927 1.278828,0.236574 2.633485,0.619795 3.798526,1.074572 0.763431,0.298007 1.342587,0.838423 1.685091,1.572376 0.397028,0.850792 0.739399,2.370919 0.651607,2.893129 -0.108354,0.644512 -0.557226,1.098219 -1.229426,1.24267 -1.558255,0.334859 -4.083296,0.641234 -6.363109,0.772065 -0.615381,0.03532 -3.0090253,0.06712 -3.5824465,0.0476 z m 3.5824465,-1.02007 c 1.132137,-0.0627 1.591495,-0.09972 2.57595,-0.207614 1.366927,-0.149813 3.437091,-0.470572 3.738477,-0.579255 0.172415,-0.06217 0.29191,-0.218445 0.313499,-0.409983 0.05313,-0.471383 -0.39398,-2.117493 -0.708114,-2.607026 -0.150435,-0.234433 -0.531504,-0.579571 -0.76749,-0.695121 -0.711082,-0.348183 -2.317719,-0.822966 -3.76373,-1.112233 -0.501295,-0.100281 -0.747939,-0.166474 -0.892817,-0.239608 -0.392199,-0.197981 -0.70699,-0.626309 -0.788687,-1.073143 -0.0698,-0.381759 0.02316,-0.716714 0.327506,-1.180127 0.615459,-0.93712 1.147496,-2.3074705 1.411559,-3.6357087 0.145581,-0.7322726 0.186747,-1.1659408 0.18918,-1.9929374 0.0027,-0.9096099 -0.02535,-1.094257 -0.256486,-1.6898416 C 13.319217,2.4284626 12.412446,1.5751899 11.266041,1.1958827 8.8664752,0.40194577 6.3384591,1.9857432 6.0015651,4.4940674 5.9525528,4.8589843 5.980079,5.8501477 6.0548924,6.4142859 6.2727635,8.057164 6.8544881,9.733426 7.584601,10.8222 c 0.2306226,0.343914 0.3134119,0.540107 0.3499945,0.829414 0.049291,0.389811 -0.1366308,0.894057 -0.4379221,1.187707 -0.2508241,0.244462 -0.4985026,0.355948 -1.0110893,0.455113 -1.4148738,0.273722 -2.5739308,0.594022 -3.6417864,1.006391 -0.8314235,0.321066 -1.1761079,0.719977 -1.5106653,1.748324 -0.171829,0.52816 -0.314224,1.220378 -0.3212507,1.561681 -0.00445,0.216244 0.0068,0.277936 0.06496,0.356137 0.1316618,0.17703 0.2213648,0.212691 0.7996776,0.31791 1.9008965,0.34585 3.8396857,0.568679 5.9366263,0.68231 0.8973873,0.04863 3.5700754,0.04024 4.5548254,-0.01429 z"
     id="path188" />
  <path
     style="fill:#ffffff"
     id="path243"
     d="m 7.7665639,1.0847853 c -0.064546,0.048831 -0.1391862,0.081587 -0.2085837,0.1223451 -0.036672,0.021538 -0.071368,0.046345 -0.1081719,0.067657 -0.087371,0.050595 -0.1357527,0.070791 -0.227535,0.1137984 -0.1453929,0.080724 -0.2880619,0.1653353 -0.4291825,0.2532876 -0.028529,0.01778 -0.058297,0.033769 -0.08533,0.05375 -0.027933,0.020646 -0.052752,0.045204 -0.079127,0.067806 C 6.4619565,1.8766763 6.3536925,2.0420181 6.2563071,2.2140198 6.2056081,2.330443 6.1438354,2.4433285 6.1047374,2.564606 6.0799732,2.6414217 6.0614504,2.7201136 6.0390968,2.797665 5.9593373,3.0260526 5.9039992,3.2604343 5.8479834,3.4953779 5.7814745,3.7536343 5.7304043,4.0149572 5.6991935,4.2798481 c -0.02555,0.2313295 -0.01154,0.4640559 -0.018216,0.6961202 -0.00221,0.1491535 -0.00948,0.2996426 0.012056,0.4479245 0.016605,0.1143517 0.037825,0.192532 0.064524,0.3052635 0.06333,0.2633202 0.143409,0.5212832 0.239159,0.7744605 0.1091738,0.2576874 0.2433495,0.5032406 0.379173,0.7475417 0.1324887,0.2111806 0.2020408,0.4509318 0.2950413,0.6798326 0.025633,0.08902 0.079343,0.1660378 0.1157189,0.2500773 0.011479,0.026519 0.018789,0.054665 0.029076,0.081669 0.027755,0.072859 0.029638,0.07325 0.062026,0.1400388 0.011336,0.025444 0.023562,0.05051 0.034007,0.076333 0.00978,0.024168 0.016248,0.049623 0.026617,0.073542 0.030352,0.070018 0.071951,0.1242866 0.095961,0.1980073 0.012223,0.042969 0.035827,0.083534 0.041777,0.1283701 0.00184,0.013846 -0.013686,0.036003 -0.00102,0.041891 C 10.584062,10.552065 11.29072,11.384333 10.363763,10.336176 10.033254,9.9113747 9.8019404,9.4197299 9.5770487,8.9334447 9.474436,8.7001838 9.3514245,8.4734331 9.2690658,8.2317858 8.8412017,6.9110048 8.4141882,7.5604324 5.965597,6.1978112 5.9299779,6.1779895 5.8470421,6.2476191 5.8346355,6.2558442 5.7729196,6.3398671 5.7236481,6.3912144 5.6892833,6.4876909 c -0.056625,0.1589707 -0.030029,0.3229317 -0.00794,0.4847381 0.030256,0.1112732 0.053705,0.2251051 0.092131,0.3340632 0.029873,0.084704 0.070144,0.1653943 0.1013942,0.2496578 0.028964,0.055553 0.039117,0.1195354 0.063048,0.1767119 0.00764,0.018247 0.020316,0.034004 0.028974,0.05179 0.034862,0.081898 0.016427,0.041556 0.055267,0.1210424 0.054716,0.1844242 0.1365232,0.3593195 0.1993255,0.5408759 0.082244,0.1857793 0.1500804,0.3771245 0.2163568,0.5690155 0.04801,0.1710254 0.1171858,0.3358623 0.1883142,0.4984666 0.00878,0.024912 0.018815,0.049417 0.026342,0.074737 0.00864,0.029068 0.013725,0.059106 0.022111,0.088249 0.00537,0.018649 0.046868,0.1395995 0.051624,0.1590766 0.052779,0.2161401 -0.0305,-0.058962 0.038084,0.1571739 0.025521,0.1410662 0.06622,0.2784362 0.094049,0.4191302 -0.00455,0.09891 0.039308,0.188743 0.062239,0.282568 0.079925,0.327028 -0.039903,-0.116109 0.040636,0.176095 0.036672,0.09276 0.04872,0.190741 0.069765,0.287275 0.027873,0.127848 0.00646,-0.0066 0.025547,0.130241 0.039235,0.151685 0.068837,0.304437 0.082171,0.460723 0.012505,0.165544 0.022044,0.331409 0.032501,0.497213 -0.00336,0.164499 0.0069,0.329252 -0.017812,0.492367 -0.023189,0.117858 -0.089271,0.229411 -0.1818312,0.306071 -0.017671,0.01627 -0.033397,0.03495 -0.053012,0.04882 -0.015377,0.01087 -0.033817,0.01659 -0.050852,0.02462 -0.092296,0.04352 -0.1902165,0.06703 -0.2904192,0.08514 -0.031446,0.0069 -0.06332,0.01211 -0.094337,0.02075 -0.035334,0.0098 -0.069199,0.02448 -0.104449,0.03462 -0.072041,0.02072 -0.1463546,0.03287 -0.2184632,0.05335 -0.2909227,0.08263 0.04735,-0.0011 -0.2460412,0.0686 -0.1152778,0.0245 -0.2326408,0.03501 -0.3499982,0.04281 -0.036139,0.0024 -0.072557,0.0017 -0.1084718,0.0063 -0.041133,0.0054 -0.081219,0.01705 -0.1221591,0.02373 -0.040945,0.0067 -0.082255,0.01088 -0.1233824,0.01632 -0.1480067,0.02216 -0.2982177,0.01623 -0.4469529,0.02662 -0.07445,0.0052 -0.1485008,0.01521 -0.2229021,0.02107 -0.036165,0.0016 -0.072588,2.6e-4 -0.1084955,0.0049 -0.037723,0.0048 -0.074319,0.01624 -0.1116754,0.02338 -0.3821636,0.07303 0.1549268,-0.03191 -0.1966487,0.02978 -0.054909,0.0096 -0.1090055,0.02354 -0.1638644,0.03345 0,0 3.0294884,2.102172 3.0294884,2.102172 v 0 c 0.1671642,-0.04471 0.3373314,-0.06987 0.5100948,-0.07902 0.2241883,-0.01745 0.4488497,-0.02828 0.6701561,-0.07216 0.3157817,-0.04312 -0.080576,0.0082 0.2457799,-0.02467 0.1612772,-0.01622 0.3167483,-0.06152 0.4732606,-0.10138 0.2321866,-0.05888 0.4683767,-0.101015 0.7006461,-0.159817 0.2064226,-0.06827 0.3676576,-0.145493 0.5218044,-0.304334 0.05474,-0.0593 0.08238,-0.08314 0.124184,-0.150937 0.06785,-0.110037 0.107267,-0.235116 0.159009,-0.352681 0.03988,-0.18621 0.05208,-0.372286 0.0389,-0.562576 0.0073,-0.173667 0.01152,-0.349357 -0.01042,-0.521986 -0.0097,-0.08712 -0.0196,-0.175757 -0.02238,-0.263439 -0.0024,-0.07433 0.0063,-0.149206 -0.01679,-0.221764 -0.04283,-0.145416 0.0055,0.03093 -0.02748,-0.137176 -0.01414,-0.07207 -0.02538,-0.07281 -0.04066,-0.145686 -0.0061,-0.02904 -0.0071,-0.05896 -0.01286,-0.08807 -0.0055,-0.02774 -0.0139,-0.05483 -0.02085,-0.08224 -0.0083,-0.02589 -0.0156,-0.05213 -0.02492,-0.07767 -0.0082,-0.0224 -0.02197,-0.04284 -0.0275,-0.06603 -0.006,-0.02516 -0.0036,-0.05163 -0.0067,-0.07731 -0.0073,-0.06067 -0.01482,-0.123395 -0.04867,-0.175728 -0.01287,-0.155856 -0.04502,-0.31045 -0.105971,-0.455074 -0.02422,-0.210652 0.0092,0.02082 -0.03735,-0.166943 -0.0077,-0.0309 -0.009,-0.06308 -0.01537,-0.09427 C 9.996649,11.241473 9.954353,11.162815 9.943887,11.072023 9.8999192,10.895288 9.825894,10.725081 9.7399014,10.564871 9.7068326,10.464602 9.6683339,10.365962 9.6354023,10.265798 9.6029738,10.167164 9.5797853,10.065173 9.5365078,9.9700992 9.521089,9.9404937 9.5031839,9.9120556 9.4902513,9.8812827 c -0.01289,-0.030671 -0.020272,-0.06338 -0.030948,-0.09489 -0.018168,-0.053625 -0.041309,-0.1055641 -0.057681,-0.1597649 -0.00804,-0.026602 -0.011022,-0.05458 -0.019372,-0.081084 -0.0069,-0.021905 -0.017497,-0.04247 -0.026245,-0.063705 -0.021597,-0.1301509 -5.22e-4,-0.02819 -0.034114,-0.1421233 -0.00658,-0.02231 -0.00858,-0.046083 -0.017592,-0.067523 -0.00725,-0.017228 -0.022303,-0.03024 -0.030571,-0.047001 C 9.2511653,9.17945 9.2433931,9.1271551 9.2137378,9.0844312 9.1062905,8.8781547 9.2435556,9.1465589 9.1346088,8.9159195 9.0768215,8.7935843 8.9901919,8.6846821 8.9633234,8.5488999 c -0.045829,-0.1118346 -0.026465,-0.042579 -0.039439,-0.15532 -0.0017,-0.014799 -0.00636,-0.029276 -0.00683,-0.044165 -2.149e-4,-0.00676 0.01145,-0.020937 0.0048,-0.019705 -0.036283,0.00672 0.053817,0.1736393 -0.04872,0.099405 -0.00173,0.014592 -0.00848,0.029452 -0.0052,0.043775 0.00274,0.011945 0.032629,0.035521 0.021974,0.029471 C 7.8361779,7.904014 6.7817068,7.3068184 5.7360437,6.6944861 c -0.017001,-0.00996 0.03924,-0.0051 0.058932,-0.00449 0.020609,6.301e-4 0.042291,2.16e-4 0.061314,0.00817 0.021517,0.009 0.037732,0.027421 0.056598,0.041131 0.1013782,0.1166881 0.019181,0.012322 0.1123923,0.1679081 0.023021,0.038426 0.049657,0.074579 0.073472,0.1125178 0.1005897,0.1602454 0.1939457,0.3250625 0.2988009,0.4826643 0.1340737,0.230529 0.2685922,0.4599261 0.3925587,0.6961444 0.097943,0.1866306 0.1540779,0.2827666 0.2180544,0.4805069 0.017572,0.054313 0.025761,0.1112255 0.038641,0.1668383 -0.02042,1.3305011 -0.024807,0.078738 3.41457,1.6503531 0.01062,0.0049 -0.01973,-0.01379 -0.02563,-0.02386 -0.02653,-0.04526 -0.0166,-0.105669 -0.0418,-0.151699 -0.02421,-0.06333 -0.03485,-0.127538 -0.0624,-0.189875 -0.06396,-0.1447288 0.0032,0.0074 -0.07481,-0.124143 -0.01307,-0.022026 -0.02176,-0.046368 -0.03264,-0.069552 -0.01029,-0.025718 -0.01901,-0.052124 -0.03088,-0.077156 -0.0028,-0.00595 -0.07819,-0.1399852 -0.07993,-0.1440563 -0.01325,-0.031047 -0.01874,-0.065006 -0.03164,-0.0962 -0.02734,-0.06611 -0.06003,-0.1133422 -0.09749,-0.1737665 C 9.9511259,9.3793461 9.9121177,9.3157393 9.8812362,9.2481395 9.8631553,9.2085605 9.8514141,9.1663369 9.8343246,9.1263199 9.8161788,9.0838293 9.794097,9.0431045 9.7755949,9.0007678 9.6235361,8.6528247 9.8130892,9.0627671 9.653467,8.7225146 9.59048,8.6007048 9.528725,8.4782054 9.4639646,8.357322 9.4230667,8.2809809 9.3763819,8.2077506 9.3374264,8.1304004 9.3184575,8.0927357 9.3034734,8.0531929 9.286497,8.0145892 9.1711119,7.7785121 9.0788547,7.5326756 8.9996435,7.2822892 8.988487,7.2403486 8.9754876,7.1988554 8.9661741,7.1564674 8.9281121,6.9832398 8.9304345,6.8017563 8.9189517,6.6257566 c -0.00638,-0.224453 0.00465,-0.4486958 0.00519,-0.6731981 0.00617,-0.2489636 0.022282,-0.4986927 0.09363,-0.7389486 0.011774,-0.041201 0.021836,-0.082931 0.035323,-0.1236041 0.015515,-0.046789 0.0719,-0.1822739 0.086266,-0.2308104 0.00968,-0.032711 0.0131,-0.066994 0.021509,-0.1000548 0.02201,-0.086533 0.040043,-0.1320125 0.069758,-0.2171845 C 9.2839617,4.3689182 9.358929,4.2047328 9.4385575,4.0423059 9.5094656,3.9074498 9.6097397,3.7990499 9.7329551,3.7091709 9.8928363,3.5871397 10.052055,3.4632835 10.237516,3.381065 c 0.20049,-0.096726 0.404109,-0.1845262 0.627582,-0.2106641 0,0 -3.0985341,-2.0856156 -3.0985341,-2.0856156 z" />
  <path
     style="fill:#ffffff"
     id="path251"
     d="M 5.4808519,14.612054 C 5.099422,14.021251 4.4688452,13.931393 3.7434358,13.535977 c -1.51e-5,-9e-6 -0.1358207,0.01499 -0.1397863,0.01543 -0.1626558,0.01263 -0.3083216,0.09238 -0.4601807,0.145251 -0.079524,0.02306 -0.1486424,0.06722 -0.2186025,0.109642 -0.018558,0.01125 -0.038514,0.02036 -0.055994,0.03322 -0.03186,0.02344 -0.059609,0.0521 -0.091016,0.07614 -0.086055,0.06371 -0.097092,0.173326 -0.1565189,0.251645 -0.1309227,0.128786 -0.2909591,0.222602 -0.4466677,0.317901 -0.03026,0.01899 -0.059827,0.03913 -0.09078,0.05697 -0.028603,0.01648 -0.059393,0.02902 -0.087751,0.04592 -0.1244283,0.07416 -0.239389,0.167285 -0.3526459,0.256956 -0.1409111,0.09477 -0.2790448,0.193168 -0.4217048,0.285473 -0.1261894,0.11316 -0.22335937,0.248871 -0.31743012,0.388739 -0.11206121,0.153342 -0.17983318,0.329093 -0.2222411,0.512651 -0.0208751,0.154569 -0.0587267,0.30567 -0.0828228,0.459811 -0.0165909,0.145886 -0.0415745,0.290587 -0.0480045,0.437439 -0.00242,0.147383 -0.007943,0.29469 -0.0106367,0.442065 -0.003421,0.112835 -0.001058,0.22573 -0.003385,0.338582 0.006194,0.08982 0.0151853,0.180267 0.0322449,0.268672 0.005407,0.01787 0.008871,0.03645 0.0162198,0.05361 0.006327,0.01478 0.010678,0.03334 0.0245141,0.04152 0.55166472,0.326139 1.03647982,0.955277 1.67715492,0.939923 0.035278,-8.46e-4 0.070422,-0.0048 0.1056822,-0.0062 0.1329945,-0.004 0.2660521,-0.0051 0.3990998,-0.0064 0.1546892,0.003 0.3092573,-0.0045 0.4639199,-0.0043 0.1590878,-0.0011 0.3181343,0.0028 0.477196,0.0048 0.078927,0.0027 0.1578773,8.74e-4 0.2368088,2.9e-4 0.020865,-1.55e-4 0.041962,-0.003 0.062596,1.26e-4 0.019184,0.0029 0.036977,0.01175 0.055466,0.01762 0.1415474,0.02615 0.2848556,0.05225 0.4285179,0.06461 0.168506,0.01044 0.3373145,0.01555 0.5061098,0.01825 0.093993,6.69e-4 0.1875992,-0.005 0.2802303,0.01195 0,0 -1.4903716,-1.098355 -1.4903716,-1.098355 v 0 c -0.092616,0.004 -0.185357,0.0038 -0.2780313,0.0014 -0.164108,-0.0028 -0.3287366,-0.0066 -0.4911046,-0.03309 -0.1454597,-0.02552 -0.2914764,-0.04882 -0.4373644,-0.07109 -0.1228159,0.0023 -0.2455871,-0.0012 -0.368398,0.0017 -0.1546627,0.002 -0.3093067,0.006 -0.4639977,0.005 -0.15777,5.71e-4 -0.315496,-0.0064 -0.4732729,-0.0019 -0.1331368,-3.72e-4 -0.2671476,0.0024 -0.39937952,-0.01517 -0.0451891,-0.01053 -0.0503876,-0.0079 -0.0890152,-0.03064 -0.010254,-0.006 -0.0391255,-0.02702 -0.0288166,-0.02108 1.54162812,0.889131 2.15520392,0.979483 1.48427442,0.896872 -0.015091,-0.01221 -0.037235,-0.02606 -0.043284,-0.0467 -0.00397,-0.01356 -9.092e-4,-0.02827 -0.00227,-0.04233 -0.00391,-0.04027 -0.013617,-0.07983 -0.021851,-0.119341 -0.023403,-0.10721 -0.00221,-0.219688 -0.012176,-0.328643 -0.00218,-0.14533 -0.00704,-0.290804 0.00183,-0.436031 0.0088,-0.142141 0.014524,-0.284919 0.042664,-0.425002 0.0144,-0.152107 0.051033,-0.300054 0.070073,-0.451424 0.026913,-0.161729 0.08028,-0.31574 0.1747372,-0.451445 0.030945,-0.04132 0.077852,-0.106182 0.1132555,-0.145218 0.058038,-0.06399 0.1269448,-0.118633 0.1904468,-0.176835 0.1346678,-0.09931 0.2581167,-0.212822 0.3945193,-0.310006 0.1729901,-0.120372 0.3511088,-0.233022 0.5305869,-0.343438 0.174418,-0.112658 0.3568919,-0.216718 0.5127039,-0.354988 0.013849,-0.01825 0.0294,-0.03533 0.041547,-0.05476 0.033713,-0.05392 0.031682,-0.121977 0.090853,-0.159874 0.092925,-0.08038 0.1956416,-0.141681 0.3141188,-0.177946 0.1396494,-0.05186 0.2801872,-0.100149 0.4316027,-0.07674 0.016992,0.0043 0.035001,0.0057 0.050975,0.01298 0.016344,0.0074 0.060048,0.03923 0.044516,0.03025 -0.512397,-0.296185 -1.0259366,-0.590448 -1.5352297,-0.891938 -0.014579,-0.0086 0.033896,0.0053 0.049313,0.01231 0.020037,0.0091 0.044577,0.03574 0.060268,0.05128 0,0 1.7141097,0.749981 1.7141097,0.749981 z" />
  <path
     style="fill:#ffffff"
     id="path253"
     d="m 5.5884693,19.222607 c 0.2380795,-0.05309 0.4816227,-0.07508 0.7240462,-0.09833 0.2226705,-0.01996 0.4463148,-0.02511 0.6697483,-0.02807 0.1401761,0.0034 0.2829529,0.0022 0.4220617,0.02319 0.080598,0.01218 0.1602335,0.03016 0.2407352,0.04296 0.2708709,0.046 0.5445314,0.06295 0.8185558,0.0466 0.8190005,-0.03492 0.03873,-0.189901 -1.3703392,-1.115243 -0.027493,-0.01806 -0.064956,0.0108 -0.097724,0.01365 -0.068902,0.006 -0.3268451,0.01509 -0.3734429,0.01693 -0.569675,0.01281 -1.1393481,0.01217 -1.7088291,-0.0071 -0.1863002,-0.0046 -0.3725857,-0.0097 -0.5588506,-0.01563 -0.1115006,-0.0035 -0.2207211,-0.0049 -0.3311214,-0.02079 -0.6203523,-0.356138 1.2211209,0.700698 1.5423886,0.919474 0.031797,0.02165 -0.047222,0.06968 -0.041433,0.107716 0.00287,0.01884 0.037761,-0.0052 0.056637,-0.0078 0.1379847,-0.01924 0.066987,-0.0078 0.2248142,-0.03844 0.3097103,-0.05487 0.6223218,-0.0828 0.9361007,-0.09924 0.3357856,-0.01671 0.6716282,-0.01072 1.0074905,-0.0016 0.3264807,0.03283 0.6506563,0.08288 0.9775998,0.112343 0.237167,0.0167 0.4749604,0.02193 0.7126395,0.02462 0.1929417,0.01739 0.3898635,7.24e-4 0.5816794,0.03168 0.03516,0.0057 0.06949,0.01566 0.104241,0.0235 0.283138,0.03654 0.567948,0.0629 0.852907,0.081 0.372445,0.0076 0.745109,-0.0053 1.117682,-0.0064 0.314003,-0.0056 0.628124,-0.0044 0.942124,8.52e-4 0.252594,-0.02259 0.499553,-0.08369 0.74973,-0.123977 0.254677,-0.04247 0.513979,-0.02735 0.769477,-0.05693 0.209026,-0.03154 0.419938,-0.04284 0.630924,-0.05044 0.157486,-0.004 0.314417,-0.01823 0.471805,-0.0251 0.03814,-0.0017 0.07645,-6.27e-4 0.114441,-0.0043 0.04437,-0.0043 0.08818,-0.01318 0.132269,-0.01977 0.282758,-0.03131 0.566259,-0.0537 0.849265,-0.083 0.245754,-0.02812 0.493149,-0.03571 0.740273,-0.03934 0.130645,-0.0052 0.259383,-0.01986 0.384017,-0.06144 0.06224,-0.02077 0.12269,-0.04664 0.184805,-0.06778 0.103556,-0.0321 0.20991,-0.05416 0.317891,-0.06398 0.02368,-0.0022 0.04769,-10e-4 0.07115,-0.0049 0.02558,-0.0042 0.05023,-0.0129 0.07535,-0.01936 0.129895,-0.03535 0.258045,-0.06714 0.392418,-0.0787 0.02099,-0.0011 0.04227,3.7e-4 0.06298,-0.0033 0.02334,-0.0041 0.04543,-0.01347 0.06827,-0.01979 0.03905,-0.01081 0.07913,-0.01767 0.118041,-0.02896 0.06954,-0.0248 0.03538,-0.01413 0.102327,-0.03248 0.04872,-0.01976 0.09766,-0.03354 0.145693,-0.055 0,0 -1.544359,-1.036199 -1.544359,-1.036199 v 0 c -0.04471,0.01449 -0.08879,0.03094 -0.134268,0.04297 -0.106855,0.03337 -0.215142,0.05782 -0.326913,0.06676 -0.134228,0.0232 -0.262868,0.06669 -0.397016,0.09029 -0.159335,0.02106 -0.313924,0.05914 -0.464578,0.116042 -0.178106,0.05808 -0.347426,0.08733 -0.535492,0.08856 -0.242984,0.01334 -0.484697,0.03955 -0.726693,0.06453 -0.283437,0.02987 -0.567937,0.04839 -0.851359,0.07873 -0.242755,0.0089 -0.484966,0.02948 -0.72798,0.03144 -0.212459,0.01025 -0.423819,0.03215 -0.634592,0.06076 -0.254945,0.02123 -0.511156,0.03079 -0.76395,0.07379 -0.244584,0.03881 -0.488271,0.09384 -0.736768,0.09894 -0.306647,0.0079 -0.61337,0.0132 -0.920078,0.01801 -0.37176,0.01175 -0.7450197,0.02411 -1.1157999,-0.01306 -0.2910691,-0.02659 -0.5823566,-0.05631 -0.8697114,-0.110997 -0.2345085,-0.02152 -0.4705337,-0.02293 -0.7056054,-0.03635 -0.2288216,-9.31e-4 -0.457843,-0.003 -0.6859997,-0.02265 -0.3194513,-0.02616 -0.6370542,-0.07327 -0.9576006,-0.08481 -0.3440962,-0.01 -0.6887315,-0.02507 -1.0324538,0.0033 -0.3199749,0.02302 -0.6377605,0.06468 -0.9562898,0.102006 -0.022887,0.0021 -0.230522,0.02051 -0.2610084,0.0254 -0.031735,0.0051 -0.068218,0.0026 -0.093892,0.02195 -0.6304458,0.47481 0.9019269,1.242616 1.5278709,1.098974 0.2716676,-0.01461 0.5437043,-0.02088 0.8156311,-0.02858 0.5691917,-0.02 1.1388567,-0.01612 1.7078303,0.01053 0.1054834,0.0076 0.3186215,0.01957 0.4333214,0.03891 0.038876,0.0066 0.1456911,0.05359 0.1145615,0.0294 -0.479762,-0.372828 -0.9784653,-0.720622 -1.4676979,-1.080933 -0.00143,0.0026 -0.00137,0.0073 -0.0043,0.0079 -0.031255,0.0062 -0.063243,0.0079 -0.094865,0.01186 -0.2711026,-0.0043 -0.5409791,-0.03399 -0.8080931,-0.08055 -0.2295979,-0.03921 -0.4617448,-0.06117 -0.6949475,-0.04837 -0.222395,0.0062 -0.4441884,0.02017 -0.6646955,0.05125 -0.256186,0.03118 -0.5132039,0.05746 -0.7706664,0.07534 0,0 1.5176366,1.067617 1.5176366,1.067617 z" />
  <path
     style="fill:#ffffff"
     id="path255"
     d="m 19.59782,18.099116 c -0.02362,-0.149369 9.83e-4,-0.299239 0.01039,-0.448587 0.01208,-0.125136 0.0078,-0.251343 0.01899,-0.376407 0.303838,-0.564689 0.03411,-0.05126 -1.666023,-0.855348 -0.01633,-0.0077 0.0078,0.03531 0.01028,0.0532 0.01396,0.09959 0.0119,0.198614 0.01068,0.298882 -0.01037,0.147408 -0.02667,0.296219 -0.07176,0.437699 -0.02152,0.06751 -0.05152,0.133614 -0.07924,0.198643 -0.0031,0.0054 -0.05011,0.09827 -0.07391,0.106973 -0.0072,0.0026 -0.01855,-0.02324 -0.01167,-0.01985 0.551727,0.272551 1.106129,0.540199 1.649553,0.828953 0.01451,0.0077 -0.02628,0.02744 -0.04252,0.02496 -0.0126,-0.0019 -0.01152,-0.02273 -0.01729,-0.03409 -0.02247,-0.116251 -0.02127,-0.236691 -0.02305,-0.354885 -0.01666,-0.213809 -0.05337,-0.42582 -0.09363,-0.636344 -0.02823,-0.176952 -0.07747,-0.349662 -0.126423,-0.521769 -0.01966,-0.114987 -0.07288,-0.219395 -0.109586,-0.328876 -0.02923,-0.101478 -0.03137,-0.206879 -0.03696,-0.311435 -0.01209,-0.16692 -0.119206,-0.306685 -0.195057,-0.451557 -0.04116,-0.101019 -0.101681,-0.193428 -0.143543,-0.29399 -0.01934,-0.04646 -0.02846,-0.08366 -0.04218,-0.131775 -0.02638,-0.129898 -0.08108,-0.245115 -0.160346,-0.350521 -0.05424,-0.06304 -0.131052,-0.09789 -0.192173,-0.152321 -0.02843,-0.02531 -0.05454,-0.05314 -0.08264,-0.07881 -0.01467,-0.0093 -0.02934,-0.0186 -0.04401,-0.0279 -0.01303,-0.01006 -0.02526,-0.02125 -0.03909,-0.03018 -0.01224,-0.0079 -0.02705,-0.01151 -0.03881,-0.02012 -0.02517,-0.01842 -0.04022,-0.04945 -0.06717,-0.06515 -0.543031,-0.316315 -1.089696,-0.626347 -1.634544,-0.93952 -0.08082,-0.04603 -0.178607,-0.04049 -0.268962,-0.04337 -0.03641,-0.0038 -0.07346,0.0082 -0.109831,0.0038 -0.01986,-0.0024 -0.03821,-0.01209 -0.05781,-0.01606 -0.07865,-0.01592 -0.160791,-0.02107 -0.240543,-0.028 -0.114067,-1.77e-4 -0.223447,-0.03363 -0.334732,-0.05303 -0.153049,-0.02667 -0.011,0.0057 -0.154792,-0.02969 -0.04356,-0.0197 -0.09201,-0.01411 -0.137149,-0.02519 -0.02162,-0.0053 -0.04152,-0.01615 -0.06272,-0.02297 -0.06411,-0.02062 -0.129973,-0.03433 -0.194194,-0.05479 -0.04012,-0.01585 -0.08475,-0.01364 -0.125478,-0.02668 -0.0187,-0.006 -0.03479,-0.01864 -0.05345,-0.02476 -0.04969,-0.01631 -0.09,-0.01509 -0.140757,-0.0278 -0.02507,-0.0063 -0.04917,-0.01595 -0.07375,-0.02393 -0.809482,-0.197681 -0.09363,-0.195498 1.362173,0.827635 0.436219,0.306573 -0.233257,0.141924 -0.03949,0.186074 0.250177,-0.03145 0.499052,-0.0043 0.748047,0.02213 0.07561,0.01754 0.153874,0.01123 0.230082,0.02271 0.03458,0.0052 0.153499,0.03749 0.187912,0.04663 0.02942,0.0078 0.05989,0.01244 0.08823,0.02355 0.02637,0.01034 0.04986,0.02691 0.07479,0.04037 0.06856,0.0284 0.0887,0.03473 0.153538,0.06939 0.02238,0.01196 0.0878,0.05089 0.06579,0.03828 -0.506718,-0.2905 -1.012551,-0.582548 -1.519912,-0.871924 -0.02046,-0.01167 0.03872,0.02695 0.05911,0.03875 0.546269,0.316045 1.093851,0.629815 1.640776,0.944722 -0.507417,-0.29293 -1.013895,-0.587492 -1.522251,-0.87879 -0.03543,-0.0203 0.06626,0.04799 0.101553,0.06854 0.543996,0.316776 1.088594,0.632518 1.633453,0.947807 0.01644,0.0095 0.06684,0.03607 0.05039,0.02657 -0.513417,-0.296451 -1.027563,-0.591637 -1.541344,-0.887455 0.544429,0.31303 1.086528,0.630145 1.633285,0.939089 0.04943,0.02793 0.05096,-0.0016 0.100807,0.02151 0.01318,0.0061 0.02017,0.02131 0.03236,0.02922 0.0123,0.008 0.05289,0.0251 0.04019,0.0178 -0.520227,-0.299121 -1.04198,-0.595578 -1.56297,-0.893368 0.01083,-0.0026 0.02345,-0.0012 0.03251,-0.0077 0.0093,-0.0067 0.04133,-0.05363 0.03661,-0.06913 -0.0027,-0.0088 -0.01664,-0.0097 -0.02589,-0.01 -0.02216,-7.72e-4 -0.04412,0.0045 -0.06618,0.0068 -0.02787,-0.0022 -0.05574,-0.0044 -0.08361,-0.0066 -0.311912,-0.06001 -0.613034,-0.163805 -0.907528,-0.281325 -0.186076,-0.07189 -0.376359,-0.134706 -0.559463,-0.21415 -0.33353,-0.14471 0.09829,0.02679 -0.228593,-0.100287 -0.153352,-0.05553 -0.302126,-0.124545 -0.45773,-0.173788 -0.105633,-0.03343 -0.136854,-0.0386 -0.244866,-0.06398 -0.3049,-0.03709 -0.598905,-0.12498 -0.895269,-0.200977 -0.05172,-0.01281 -0.103675,-0.02472 -0.155168,-0.03842 -0.186117,-0.04953 -0.08866,-0.0301 -0.270443,-0.0746 -0.118659,-0.02904 -0.238075,-0.04941 -0.356082,-0.08117 -0.09168,-0.02807 -0.186745,-0.04182 -0.279941,-0.06282 -0.06783,-0.01529 -0.130032,-0.03498 -0.199254,-0.04401 -0.01781,-0.0082 -0.03483,-0.01834 -0.05344,-0.02445 -0.144717,-0.04747 0.01023,0.0239 -0.122003,-0.04689 -0.02018,-0.01081 -0.08126,-0.04218 -0.0614,-0.03079 1.684671,0.965599 2.011796,1.164101 1.452299,0.825917 -0.151851,-0.09663 -0.230027,-0.248311 -0.30192,-0.406716 -0.05433,-0.136242 -0.09152,-0.281315 -0.104473,-0.427544 -0.0078,-0.119968 0.02456,-0.236924 0.05174,-0.352731 0.0048,-0.01295 0.0064,-0.02754 0.01428,-0.03884 0.0025,-0.0035 0.0063,0.0081 0.0045,0.01199 -0.01693,0.0377 -0.02221,0.128108 -0.05891,0.109098 -1.437802,-0.744823 -1.747476,-1.556468 -1.559314,-0.878082 -0.002,0.01503 -0.01965,0.03845 -0.006,0.0451 1.766934,0.862441 1.701216,1.335912 1.713575,0.354553 -0.0021,-0.193291 0.0089,-0.385334 0.05553,-0.57337 0.02605,-0.116303 0.06999,-0.222949 0.134077,-0.323031 0.05457,-0.09648 0.126558,-0.181681 0.184465,-0.276078 0.03229,-0.05265 0.06095,-0.10745 0.09245,-0.160573 0.05777,-0.101361 0.123563,-0.199461 0.16841,-0.307687 0.0077,-0.0185 0.04966,-0.1405584 0.05748,-0.1631115 0.03794,-0.1109193 0.01946,-0.054021 0.05519,-0.1707664 0,0 -1.607588,-0.8804008 -1.607588,-0.8804008 v 0 c -0.03356,0.1088148 -0.01521,0.054694 -0.05511,0.1623369 -0.02618,0.07325 -0.04636,0.1491306 -0.0798,0.2195539 -0.03402,0.071628 -0.04368,0.0792 -0.08468,0.148959 -0.01436,0.024441 -0.02792,0.04935 -0.04188,0.074025 -0.02816,0.049791 -0.05385,0.1010484 -0.0843,0.1494728 -0.05993,0.095312 -0.138195,0.1772441 -0.198482,0.2722358 -0.07778,0.1170213 -0.141182,0.2457853 -0.166267,0.3849833 -0.03407,0.203187 -0.04591,0.409475 -0.04372,0.615364 -0.0044,0.10149 -0.0093,0.201685 -0.02526,0.302137 -0.002,0.01273 -0.01893,0.03195 -0.0075,0.03794 1.652558,0.865901 2.192339,0.484335 1.642407,0.858686 -0.484949,-0.553526 2.160439,1.002099 -1.627616,-1.052536 -0.03752,-0.02035 -0.05372,0.06657 -0.07666,0.102563 -0.01525,0.02392 -0.02338,0.06979 -0.02951,0.09613 -0.01459,0.06023 -0.02572,0.120815 -0.03848,0.181454 -0.0058,0.02734 -0.02652,0.123657 -0.02873,0.148236 -0.0022,0.02454 3.76e-4,0.04928 5.64e-4,0.07392 3.93e-4,0.03452 5.71e-4,0.129457 0.0047,0.163141 0.01343,0.110583 0.05778,0.216763 0.0796,0.325553 0.07882,0.20567 -0.01486,-0.03344 0.0711,0.169474 0.04959,0.117074 0.09715,0.228835 0.188123,0.32166 0.507046,0.49838 0.06535,0.07372 1.702025,1.001805 0.04602,0.02609 0.08677,0.02841 0.13645,0.04179 0.02256,0.0061 0.04422,0.01541 0.067,0.02062 0.02087,0.0048 0.04237,0.0062 0.06356,0.0093 0.148574,0.03603 0.300458,0.05686 0.448621,0.09518 0.252519,0.05162 0.502141,0.114779 0.752106,0.177526 0.302762,0.08253 0.610222,0.14245 0.914852,0.216809 0.235723,0.07155 0.463731,0.164801 0.691697,0.257796 0.251664,0.107222 0.509628,0.198072 0.766871,0.290849 0.268011,0.09212 0.573493,0.205792 0.853533,0.245444 0.04407,0.0062 0.08884,0.0058 0.133254,0.0087 0.05816,-0.0065 0.14735,-0.01235 0.203324,-0.03483 0.09128,-0.03666 0.156881,-0.121753 0.168993,-0.21991 0.0025,-0.02063 -0.0059,-0.04115 -0.0089,-0.06173 -0.544523,-0.311413 -1.088645,-0.623528 -1.63357,-0.934238 -0.07479,-0.04264 -0.0018,2.47e-4 -0.0849,-0.02809 -0.023,-0.0078 -0.05935,-0.03365 -0.07888,-0.04649 0.515316,0.297224 1.030633,0.594448 1.54595,0.891672 -0.544767,-0.313771 -1.089491,-0.627616 -1.634302,-0.941311 -0.01592,-0.0092 -0.06378,-0.03651 -0.0479,-0.02728 0.510477,0.296992 1.020409,0.594925 1.531686,0.890536 0.01779,0.01029 -0.03379,-0.02342 -0.05111,-0.03449 -0.01811,-0.01158 -0.03659,-0.02258 -0.05515,-0.03343 -0.544131,-0.318329 -1.088601,-0.636077 -1.632902,-0.954115 0.505625,0.292071 1.011735,0.583303 1.516875,0.876213 0.02008,0.01164 -0.04154,-0.02079 -0.06165,-0.03239 -0.546506,-0.315085 -1.090582,-0.634386 -1.638149,-0.947622 -0.0696,-0.03981 -0.153274,-0.05349 -0.225192,-0.088 -0.193532,-0.04528 -0.388524,-0.07172 -0.587629,-0.076 -0.268604,-0.01766 -0.537662,-0.02973 -0.806922,-0.02203 -0.03737,0.0093 -0.390188,0.07656 -0.20049,0.215407 1.196023,0.875423 1.103006,0.757561 1.84454,0.965252 0.07497,0.01837 0.146512,0.0441 0.220649,0.06433 0.05975,0.0163 0.122838,0.02208 0.181009,0.04503 0.131923,0.0325 0.263021,0.06657 0.397567,0.08697 0.163884,0.02435 0.326726,0.05532 0.492305,0.06715 0.08243,0.01231 0.165896,0.03089 0.248771,0.03921 0.0606,0.0061 0.122864,3.54e-4 0.182643,0.01591 0.08381,0.01625 0.15594,0.05126 0.229575,0.09337 -0.517907,-0.30019 -1.036639,-0.598962 -1.55372,-0.900571 -0.07343,-0.04283 0.05789,0.02304 0.07822,0.04284 0.01268,0.01235 0.01855,0.0307 0.03155,0.04271 0.02552,0.02358 0.0655,0.02834 0.08474,0.06071 0.03379,0.01596 0.06792,0.02956 0.09708,0.05393 0.03623,0.03028 0.05112,0.06261 0.08827,0.09225 0.0159,0.01268 0.03523,0.02035 0.05246,0.03114 0.01626,0.01018 0.032,0.02116 0.048,0.03173 0.07217,0.0397 0.07854,0.04403 0.129927,0.108222 0.03808,0.04757 0.06867,0.09013 0.07838,0.153049 0.02528,0.07568 0.04155,0.155004 0.06977,0.22958 0.03951,0.104409 0.0266,0.0508 0.079,0.14721 0.01499,0.02759 0.0269,0.05674 0.04035,0.08512 0.04073,0.0821 0.07769,0.167209 0.123254,0.246807 0.01962,0.03427 0.04005,0.05808 0.05703,0.09298 0.006,0.01231 0.01,0.02549 0.01498,0.03823 0.02011,0.110409 0.01122,0.224667 0.03355,0.335106 0.0049,0.03157 0.01323,0.09269 0.02286,0.124036 0.02262,0.07366 0.06481,0.141321 0.09497,0.211788 0.03996,0.177956 0.116479,0.345793 0.152083,0.525133 0.0076,0.03428 0.042,0.187005 0.04747,0.222471 0.01876,0.121696 0.01734,0.24605 0.03767,0.367608 -0.0025,0.125154 -0.0064,0.250142 -0.0044,0.375337 -6.96e-4,0.0195 6.54e-4,0.03918 -0.0021,0.05849 -0.0045,0.03144 -0.04709,0.0776 -0.01946,0.09325 1.32362,0.749506 1.488119,1.413371 1.776196,0.647513 0.04348,-0.109438 0.09569,-0.218121 0.123098,-0.333155 0.02802,-0.117612 0.03067,-0.2406 0.05497,-0.358893 0.01088,-0.122422 0.0076,-0.09531 0.02111,-0.212071 0.0029,-0.02542 0.0051,-0.05095 0.0092,-0.0762 0.0024,-0.01487 0.02346,-0.03678 0.01025,-0.04401 -1.701582,-0.931399 -1.869085,-1.463556 -1.666598,-0.843077 0.0085,0.125148 0.0017,0.251127 3.24e-4,0.376424 -0.0072,0.149115 -0.01188,0.298332 -0.03906,0.445505 0,0 1.665244,0.848484 1.665244,0.848484 z" />
  <path
     style="fill:#ffffff"
     id="path257"
     d="m 13.662353,10.120049 c -0.01738,-0.1464266 -0.0051,-0.2961342 0.01032,-0.4424032 0.03115,-0.184101 0.05269,-0.3689963 0.06327,-0.5553608 0.0098,-0.1682166 0.02519,-0.335835 0.03677,-0.5039585 0.006,-0.2192137 0.02874,-0.4376125 0.04623,-0.6561542 0.02027,-0.2188167 0.05337,-0.4361812 0.08273,-0.6539064 0.03539,-0.2218308 0.09738,-0.4379556 0.143059,-0.6576487 0.03731,-0.2251329 0.07279,-0.4505087 0.107961,-0.6759672 0.02596,-0.1727196 0.05835,-0.3440671 0.08984,-0.5158071 0.04015,-0.1974427 0.03821,-0.3993361 0.04275,-0.5998019 0.0031,-0.2124818 10e-4,-0.4250059 0.0073,-0.6374407 0.01638,-0.1565918 -0.0031,-0.3089868 -0.03567,-0.4616915 C 14.206815,3.6005716 14.146116,3.4448454 14.061983,3.3004392 13.86576,3.0339353 13.709716,2.741412 13.563246,2.4455322 13.483523,2.2752152 13.379631,2.1184017 13.279578,1.959751 13.176285,1.8117289 13.043759,1.6876692 12.902906,1.576121 11.952104,0.9943592 11.6516,0.63177394 10.795778,0.53201216 c -0.181529,-0.0155168 -0.36388,-0.0130734 -0.545894,-0.0142355 -0.174857,0.0157586 -0.34978,0.0276358 -0.5253448,0.0306271 -0.029979,0.003419 -0.06006,0.006044 -0.089938,0.0102572 -0.3100427,0.0437162 0.1115891,-0.0102567 -0.1882527,0.0289853 -0.057249,0.007492 -0.1153724,0.008288 -0.1722518,0.0182024 -0.027967,0.004875 -0.05496,0.0142522 -0.08244,0.0213783 -0.1724673,0.0355934 -0.3475723,0.0605558 -0.5227397,0.0790989 -0.1797313,0.0362509 -0.3557573,0.0886541 -0.5355205,0.12454023 -0.086581,0.0255317 -0.1883519,0.0569087 -0.2637083,0.10903774 -0.044865,0.0310363 -0.060757,0.0539321 -0.096674,0.0944364 -0.077913,0.097421 -0.1266449,0.2134291 -0.1899167,0.3197002 -0.032771,0.045062 -0.052316,0.096363 -0.071627,0.1480193 0,0 1.6261314,0.8984874 1.6261314,0.8984874 v 0 c 0.013226,-0.04246 0.029022,-0.083102 0.052991,-0.1209925 0.050934,-0.094887 0.091445,-0.195825 0.1648478,-0.2771468 0.082251,-0.069907 0.1869154,-0.1002076 0.290211,-0.1255975 0.1720786,-0.047132 0.3451621,-0.092807 0.5232743,-0.110669 0.177714,-0.028508 0.355991,-0.053236 0.532671,-0.087883 0.170359,-0.024274 0.340578,-0.055755 0.513195,-0.05632 0.172002,-0.011163 0.344162,-0.023029 0.516522,-0.025952 0.177629,0.00183 0.356089,0.00614 0.531463,0.037167 0.08603,0.017231 0.173142,0.033222 0.256439,0.061549 0.54712,0.1860608 1.603611,1.2395007 -1.320407,-0.79082584 0.04384,0.0275324 0.108499,0.066599 0.149548,0.0984899 0.08904,0.069177 0.168891,0.1500464 0.246683,0.2312981 0.01859,0.020783 0.0392,0.039914 0.05576,0.062351 0.03583,0.048573 0.06173,0.1038361 0.09574,0.1537008 0.01705,0.024999 0.03713,0.047887 0.05359,0.07328 0.169349,0.2612459 -0.07918,-0.095668 0.118137,0.1829037 0.107465,0.1913143 0.210625,0.3852493 0.320446,0.575189 0.02899,0.050147 0.06158,0.09825 0.08874,0.1494148 0.02254,0.042459 0.0401,0.087379 0.06015,0.1310685 0.0058,0.00867 0.0848,0.1263717 0.09238,0.139775 0.04889,0.086381 0.06359,0.1856553 0.110182,0.273115 0.04195,0.089391 0.01876,0.02583 0.03803,0.1275405 0.0081,0.042503 0.02443,0.083444 0.02929,0.1264303 0.0061,0.053905 -0.0048,0.1088798 0.0047,0.1626747 0.0066,0.2126747 0.0059,0.4254473 0.0028,0.638186 -0.0035,0.189744 -0.01221,0.3796637 -0.04106,0.5675072 -0.01578,0.085979 -0.03859,0.1713341 -0.05257,0.2575255 -0.01462,0.090132 -0.01601,0.1825213 -0.03248,0.2724697 -0.02137,0.2239093 -0.0668,0.4443451 -0.09306,0.6675742 -0.04615,0.2235295 -0.113845,0.4419002 -0.156187,0.6663175 -0.02737,0.2223091 -0.06077,0.4439698 -0.07944,0.6673306 -0.0051,0.08142 -0.009,0.160799 -0.01819,0.2419204 -0.01214,0.107407 -0.03667,0.2134728 -0.0483,0.3208018 -0.003,0.028104 -0.0026,0.056476 -0.004,0.084713 -0.0061,0.169401 -0.02682,0.3380149 -0.02935,0.5075765 -0.0091,0.1805899 -0.02334,0.3611924 -0.06019,0.5385938 -0.02617,0.148664 -0.02823,0.3000661 -0.05545,0.4487609 0,0 1.667563,0.8496651 1.667563,0.8496651 z" />
</svg>
