<?xml version="1.0" encoding="iso-8859-1"?>
<!-- Generator: Adobe Illustrator 16.0.0, SVG Export Plug-In . SVG Version: 6.00 Build 0)  -->
<!DOCTYPE svg PUBLIC "-//W3C//DTD SVG 1.1//EN" "http://www.w3.org/Graphics/SVG/1.1/DTD/svg11.dtd">
<svg version="1.1" id="Capa_1" xmlns="http://www.w3.org/2000/svg" xmlns:xlink="http://www.w3.org/1999/xlink" x="0px" y="0px"
	 width="30.498px" height="30.498px" viewBox="0 0 30.498 30.498" style="enable-background:new 0 0 30.498 30.498;"
	 xml:space="preserve">
<g>
	<g>
		<circle cx="15.706" cy="3.64" r="3.62"/>
		<polygon points="19.332,7.803 18.439,7.803 17.104,7.803 15.769,9.401 14.389,7.803 12.978,7.803 11.973,7.803 11.196,7.803 
			10.937,14.206 20.204,14.206 20.021,7.803 		"/>
		<circle cx="4.769" cy="19.914" r="3.619"/>
		<polygon points="8.396,24.078 7.503,24.078 6.167,24.078 4.832,25.677 3.453,24.078 2.042,24.078 1.035,24.078 0.258,24.078 
			0,30.479 9.268,30.479 9.084,24.078 		"/>
		<circle cx="25.999" cy="19.768" r="3.619"/>
		<polygon points="30.314,23.932 29.625,23.932 28.732,23.932 27.396,23.932 26.062,25.53 24.682,23.932 23.271,23.932 
			22.266,23.932 21.488,23.932 21.23,30.334 30.498,30.334 		"/>
		<rect x="10.471" y="26.014" width="1.346" height="0.645"/>
		<rect x="18.544" y="26.014" width="1.345" height="0.645"/>
		<rect x="15.853" y="26.014" width="1.346" height="0.645"/>
		<rect x="13.162" y="26.014" width="1.345" height="0.645"/>
		<rect x="4.312" y="8.076" width="0.645" height="1.293"/>
		<rect x="4.312" y="5.491" width="0.645" height="1.293"/>
		<rect x="4.312" y="10.662" width="0.645" height="1.293"/>
		<rect x="4.312" y="13.248" width="0.645" height="1.293"/>
		<polygon points="5.091,3.392 5.414,3.392 5.414,2.748 4.447,2.748 4.447,3.713 5.091,3.713 		"/>
		<rect x="22.904" y="2.748" width="1.346" height="0.645"/>
		<rect x="20.213" y="2.748" width="1.346" height="0.645"/>
		<rect x="6.759" y="2.748" width="1.346" height="0.645"/>
		<rect x="9.45" y="2.748" width="1.345" height="0.645"/>
		<polygon points="25.917,3.713 26.562,3.713 26.562,2.748 25.596,2.748 25.596,3.392 25.917,3.392 		"/>
		<rect x="25.917" y="10.179" width="0.646" height="1.292"/>
		<rect x="25.917" y="5.006" width="0.646" height="1.293"/>
		<rect x="25.917" y="7.593" width="0.646" height="1.293"/>
		<rect x="25.917" y="12.764" width="0.646" height="1.293"/>
	</g>
</g>
<g>
</g>
<g>
</g>
<g>
</g>
<g>
</g>
<g>
</g>
<g>
</g>
<g>
</g>
<g>
</g>
<g>
</g>
<g>
</g>
<g>
</g>
<g>
</g>
<g>
</g>
<g>
</g>
<g>
</g>
</svg>
